<svg xmlns="http://www.w3.org/2000/svg" viewBox="0 0 512 512">
  <defs>
    <linearGradient id="gradient" x1="50%" x2="50%" y1="0%" y2="100%">
      <stop offset="0%" stop-color="#2a8bf2" />
      <stop offset="100%" stop-color="#1d6fd0" />
    </linearGradient>
  </defs>
  <rect width="512" height="512" rx="104" fill="url(#gradient)" />
  <g fill="#ffffff" transform="translate(128 96)">
    <path d="M128 0c-70.692 0-128 57.308-128 128s57.308 128 128 128 128-57.308 128-128S198.692 0 128 0zm0 228.571c-55.477 0-100.571-45.094-100.571-100.571S72.523 27.429 128 27.429 228.571 72.523 228.571 128 183.477 228.571 128 228.571z" opacity="0.9" />
    <path d="M140.571 62.857c0-7.543-6.114-13.714-13.657-13.714-7.543 0-13.714 6.171-13.714 13.714v76.148c0 4.006 1.794 7.791 4.901 10.335l54.857 45.714c5.8 4.836 14.45 4.067 19.286-1.733 4.836-5.8 4.067-14.45-1.733-19.286l-49.94-41.586V62.857z" />
  </g>
</svg>
